# xmcd
#
# Track frame offsets:
# 150
# 22368
# 50638
# 65732
# 88688
# 102871
# 133905
# 151440
# 165745
# 187624
# 220235
# 235155
# 251362
# 269587
# 303487
#
# Disc length: 4511 seconds
#
#
# Revision: 0
# Processed by: cddbd v1.5.1PL2 Copyright (c) Steve Scherf et al.
# Submitted via: FreeRIP 2.944 
#
DISCID=d9119d0f
DTITLE=Barry White - Gold
DYEAR=2006
DGENRE=Blues
TTITLE0=CD2 - My Sweet Summer Suite
TTITLE1=CD2 - Don't Make Me Wait Too Long
TTITLE2=CD2 - I'm Qualifed To Satsfy You
TTITLE3=CD2 - It's Ecstacy When You Lay Down Next To Me
TTITLE4=CD2 - Oh,What A Night For Dancing
TTITLE5=CD2 - Playing Your Game,Baby
TTITLE6=CD2 - Just The Way You Are
TTITLE7=CD2 - It's Only Love Doing It's Thing
TTITLE8=CD2 - Sha La La Means I Love You
TTITLE9=CD2 - Beware
TTITLE10=CD2 - Change
TTITLE11=CD2 - I've Got So Munch To Give
TTITLE12=CD2 - Sho You Right
TTITLE13=CD2 - Practice What You Preach
TTITLE14=CD2 - I Only Want To Be With You
EXTD=byValentinuccia
EXTT0=
EXTT1=
EXTT2=
EXTT3=
EXTT4=
EXTT5=
EXTT6=
EXTT7=
EXTT8=
EXTT9=
EXTT10=
EXTT11=
EXTT12=
EXTT13=
EXTT14=
PLAYORDER=
